<svg width="26" height="26" viewBox="0 0 26 26" fill="none" xmlns="http://www.w3.org/2000/svg">
<path d="M13.4717 0.5L23.7996 5.1875H25.1902C25.3974 5.1875 25.5961 5.26981 25.7426 5.41632C25.8891 5.56283 25.9714 5.76155 25.9714 5.96875V9.09375C25.9714 9.30095 25.8891 9.49966 25.7426 9.64618C25.5961 9.79269 25.3974 9.875 25.1902 9.875H24.4089V20.8125C24.5834 20.8126 24.7528 20.8712 24.8902 20.9788C25.0275 21.0864 25.1249 21.2369 25.1667 21.4062L25.948 24.5312C25.977 24.6463 25.9794 24.7665 25.9549 24.8827C25.9304 24.9988 25.8796 25.1078 25.8064 25.2013C25.7333 25.2948 25.6397 25.3703 25.5329 25.4221C25.4261 25.4739 25.3089 25.5005 25.1902 25.5H1.75319C1.63449 25.5005 1.51724 25.4739 1.41043 25.4221C1.30361 25.3703 1.21006 25.2948 1.13692 25.2013C1.06378 25.1078 1.01301 24.9988 0.988477 24.8827C0.963946 24.7665 0.966312 24.6463 0.995392 24.5312L1.77662 21.4062C1.81875 21.237 1.91618 21.0867 2.05346 20.9791C2.19075 20.8715 2.36002 20.8129 2.53442 20.8125V9.875H1.75319C1.54599 9.875 1.34728 9.79269 1.20077 9.64618C1.05426 9.49966 0.971955 9.30095 0.971955 9.09375V5.96875C0.971955 5.76155 1.05426 5.56283 1.20077 5.41632C1.34728 5.26981 1.54599 5.1875 1.75319 5.1875H3.14378L13.4717 0.5ZM6.87339 5.1875H20.0715L13.4717 2.0625L6.87339 5.1875ZM4.09689 9.875V20.8125H5.65935V9.875H4.09689ZM7.22182 9.875V20.8125H11.128V9.875H7.22182ZM12.6904 9.875V20.8125H14.2529V9.875H12.6904ZM15.8154 9.875V20.8125H19.7215V9.875H15.8154ZM21.284 9.875V20.8125H22.8465V9.875H21.284ZM24.4089 8.3125V6.75H2.53442V8.3125H24.4089ZM23.7996 22.375H3.14378L2.75317 23.9375H24.1902L23.7996 22.375Z" fill="#7B22D3"/>
</svg>
