<svg width="24" height="24" viewBox="0 0 24 24" fill="none" xmlns="http://www.w3.org/2000/svg">
<path d="M14.25 7.56934H3.75C3.55109 7.56934 3.36032 7.49032 3.21967 7.34967C3.07902 7.20901 3 7.01825 3 6.81934V3.81934C3 3.62042 3.07902 3.42966 3.21967 3.28901C3.36032 3.14835 3.55109 3.06934 3.75 3.06934H14.25C14.4489 3.06934 14.6397 3.14835 14.7803 3.28901C14.921 3.42966 15 3.62042 15 3.81934V6.81934C15 7.01825 14.921 7.20901 14.7803 7.34967C14.6397 7.49032 14.4489 7.56934 14.25 7.56934ZM4.5 6.06934H13.5V4.52434H4.5V6.06934Z" fill="#7B22D3"/>
<path d="M14.25 9.12939H3.75C3.55109 9.12939 3.36032 9.20841 3.21967 9.34906C3.07902 9.48972 3 9.68048 3 9.87939V12.8194C3 13.0183 3.07902 13.2091 3.21967 13.3497C3.36032 13.4904 3.55109 13.5694 3.75 13.5694H12.27L15 10.7944V9.87939C15 9.68048 14.921 9.48972 14.7803 9.34906C14.6397 9.20841 14.4489 9.12939 14.25 9.12939ZM13.5 12.0694H4.5V10.5694H13.5V12.0694Z" fill="#7B22D3"/>
<path d="M6.795 22.2018V22.1568L7.035 21.1143H1.5V1.56934H16.5V9.25684L18 7.83934V0.819336C18 0.620424 17.921 0.429658 17.7803 0.289006C17.6397 0.148354 17.4489 0.0693359 17.25 0.0693359H0.75C0.551088 0.0693359 0.360322 0.148354 0.21967 0.289006C0.0790176 0.429658 0 0.620424 0 0.819336V21.8193C0 22.0182 0.0790176 22.209 0.21967 22.3497C0.360322 22.4903 0.551088 22.5693 0.75 22.5693H6.75C6.75618 22.4459 6.77122 22.3231 6.795 22.2018Z" fill="#7B22D3"/>
<path d="M15 12.9468L14.415 13.5393C14.5602 13.5094 14.6932 13.4371 14.7973 13.3317C14.9014 13.2262 14.972 13.0923 15 12.9468Z" fill="#7B22D3"/>
<path d="M3 18.7743C3 18.9732 3.07902 19.164 3.21967 19.3047C3.36032 19.4453 3.55109 19.5243 3.75 19.5243H7.38L7.605 18.5493L7.7025 18.1368V18.0993H4.5V16.5693H9.255L10.755 15.0693H3.75C3.55109 15.0693 3.36032 15.1484 3.21967 15.289C3.07902 15.4297 3 15.6204 3 15.8193V18.7743Z" fill="#7B22D3"/>
<path d="M23.6174 11.0718L21.0899 8.54429C20.9778 8.43181 20.8445 8.34257 20.6978 8.28169C20.5511 8.2208 20.3938 8.18945 20.2349 8.18945C20.0761 8.18945 19.9188 8.2208 19.7721 8.28169C19.6254 8.34257 19.4921 8.43181 19.3799 8.54429L9.09743 18.8868L8.24993 22.4943C8.2182 22.6499 8.21748 22.8103 8.24783 22.9662C8.27817 23.1221 8.33898 23.2705 8.42676 23.4029C8.51454 23.5352 8.62758 23.649 8.75939 23.7376C8.89121 23.8262 9.03921 23.888 9.19493 23.9193C9.27223 23.9271 9.35012 23.9271 9.42743 23.9193C9.51932 23.9343 9.61303 23.9343 9.70492 23.9193L13.3424 23.1168L23.6174 12.8193C23.7297 12.7078 23.8188 12.5751 23.8795 12.429C23.9403 12.2829 23.9716 12.1263 23.9716 11.968C23.9716 11.8098 23.9403 11.6531 23.8795 11.507C23.8188 11.3609 23.7297 11.2283 23.6174 11.1168V11.0718ZM12.5774 21.7518L9.83242 22.3593L10.4999 19.6368L18.2099 11.8443L20.3249 13.9593L12.5774 21.7518ZM21.1724 13.1118L19.0574 10.9968L20.2499 9.81929L22.3799 11.9493L21.1724 13.1118Z" fill="#7B22D3"/>
</svg>
